# xmcd CD database file
#
# Track frame offsets:
#	150
#	47194
#	95360
#	153929
#	199497
#	256670
#
# Disc length: 4047 seconds
#
# Revision: 0
# Processed by: cddbd v1.5.1PL0 Copyright (c) Steve Scherf et al.
# Submitted via: CDex 1.51
#
DISCID=480fcd06
DTITLE=Bugge Wesseltoft - Moving
DYEAR=1900
DGENRE=Jazz
TTITLE0=Change
TTITLE1=Gare Du Nord
TTITLE2=Yellow Is the Colour
TTITLE3=Lone
TTITLE4=Moving
TTITLE5=Heim
EXTD=
EXTT0=
EXTT1=
EXTT2=
EXTT3=
EXTT4=
EXTT5=
PLAYORDER=
